<svg width="101" height="100" viewBox="0 0 101 100" fill="none" xmlns="http://www.w3.org/2000/svg">
<rect x="0.5" width="100" height="100" rx="50" fill="#FFD8D6"/>
<rect x="28.832" y="26.6667" width="42.6667" height="44.6667" fill="#FCFCFC"/>
<path d="M50.4961 10.0001C28.4561 10.0001 10.4961 27.9601 10.4961 50.0001C10.4961 72.0401 28.4561 90.0001 50.4961 90.0001C72.5361 90.0001 90.4961 72.0401 90.4961 50.0001C90.4961 27.9601 72.5361 10.0001 50.4961 10.0001ZM63.9361 59.2001C65.0961 60.3601 65.0961 62.2801 63.9361 63.4401C63.3361 64.0401 62.5761 64.3201 61.8161 64.3201C61.0561 64.3201 60.2961 64.0401 59.6961 63.4401L50.4961 54.2401L41.2961 63.4401C40.6961 64.0401 39.9361 64.3201 39.1761 64.3201C38.4161 64.3201 37.6561 64.0401 37.0561 63.4401C35.8961 62.2801 35.8961 60.3601 37.0561 59.2001L46.2561 50.0001L37.0561 40.8001C35.8961 39.6401 35.8961 37.7201 37.0561 36.5601C38.2161 35.4001 40.1361 35.4001 41.2961 36.5601L50.4961 45.7601L59.6961 36.5601C60.8561 35.4001 62.7761 35.4001 63.9361 36.5601C65.0961 37.7201 65.0961 39.6401 63.9361 40.8001L54.7361 50.0001L63.9361 59.2001Z" fill="#FF2635"/>
</svg>
