<svg width="256" height="262" viewBox="0 0 256 262" fill="none" xmlns="http://www.w3.org/2000/svg">
<g clip-path="url(#clip0_2076_5)">
<path d="M255.879 133.452C255.879 122.718 255.008 114.885 253.123 106.762H130.551V155.21H202.498C201.048 167.25 193.215 185.382 175.808 197.566L175.564 199.188L214.319 229.211L217.004 229.479C241.663 206.705 255.879 173.197 255.879 133.452" fill="#4285F4"/>
<path d="M130.551 261.101C165.799 261.101 195.39 249.496 217.004 229.479L175.808 197.566C164.784 205.254 149.988 210.621 130.551 210.621C96.0278 210.621 66.7268 187.848 56.2818 156.371L54.7508 156.501L14.4528 187.688L13.9258 189.153C35.3938 231.799 79.4908 261.101 130.551 261.101Z" fill="#34A853"/>
<path d="M56.281 156.37C53.525 148.247 51.93 139.544 51.93 130.551C51.93 121.557 53.525 112.854 56.136 104.731L56.063 103.001L15.26 71.3125L13.925 71.9475C5.077 89.6445 0 109.518 0 130.551C0 151.584 5.077 171.455 13.925 189.152L56.281 156.37" fill="#FBBC05"/>
<path d="M130.551 50.479C155.065 50.479 171.601 61.068 181.03 69.917L217.874 33.943C195.246 12.91 165.799 0 130.551 0C79.4908 0 35.3938 29.301 13.9258 71.947L56.1368 104.73C66.7268 73.253 96.0278 50.479 130.551 50.479" fill="#EB4335"/>
</g>
<defs>
<clipPath id="clip0_2076_5">
<rect width="256" height="262" fill="white"/>
</clipPath>
</defs>
</svg>
