<svg width="52" height="52" viewBox="0 0 52 52" fill="none" xmlns="http://www.w3.org/2000/svg">
<path d="M51 20.8758V33.2982C51 45.7206 46 50.6896 33.5 50.6896H18.5C6 50.6896 1 45.7206 1 33.2982V18.3914C1 5.96896 6 1 18.5 1H31" fill="#0652DD"/>
<path d="M51 20.8758V33.2982C51 45.7206 46 50.6896 33.5 50.6896H18.5C6 50.6896 1 45.7206 1 33.2982V18.3914C1 5.96896 6 1 18.5 1H31" stroke="#0652DD" stroke-width="1.5" stroke-linecap="round" stroke-linejoin="round"/>
<path d="M51 20.8758H41C33.5 20.8758 31 18.3914 31 10.9379V1L51 20.8758Z" fill="#0544B8" stroke="#0544B8" stroke-width="1.5" stroke-linecap="round" stroke-linejoin="round"/>
<path d="M15.9923 45.1616V36.5216H19.4843C19.5683 36.5216 19.6723 36.5256 19.7963 36.5336C19.9203 36.5376 20.0383 36.5496 20.1503 36.5696C20.6303 36.6456 21.0303 36.8096 21.3503 37.0616C21.6743 37.3136 21.9163 37.6316 22.0763 38.0156C22.2363 38.3996 22.3163 38.8236 22.3163 39.2876C22.3163 39.7556 22.2363 40.1816 22.0763 40.5656C21.9163 40.9496 21.6743 41.2676 21.3503 41.5196C21.0303 41.7716 20.6303 41.9356 20.1503 42.0116C20.0383 42.0276 19.9183 42.0396 19.7903 42.0476C19.6663 42.0556 19.5643 42.0596 19.4843 42.0596H17.2463V45.1616H15.9923ZM17.2463 40.8716H19.4363C19.5163 40.8716 19.6043 40.8676 19.7003 40.8596C19.8003 40.8516 19.8943 40.8376 19.9823 40.8176C20.2383 40.7576 20.4443 40.6476 20.6003 40.4876C20.7563 40.3236 20.8683 40.1356 20.9363 39.9236C21.0043 39.7116 21.0383 39.4996 21.0383 39.2876C21.0383 39.0756 21.0043 38.8656 20.9363 38.6576C20.8683 38.4456 20.7563 38.2596 20.6003 38.0996C20.4443 37.9356 20.2383 37.8236 19.9823 37.7636C19.8943 37.7396 19.8003 37.7236 19.7003 37.7156C19.6043 37.7076 19.5163 37.7036 19.4363 37.7036H17.2463V40.8716ZM23.5158 45.1616V36.5216H26.2218C26.3018 36.5216 26.4498 36.5236 26.6658 36.5276C26.8858 36.5316 27.0958 36.5476 27.2958 36.5756C27.9718 36.6596 28.5398 36.9016 28.9998 37.3016C29.4638 37.7016 29.8138 38.2096 30.0498 38.8256C30.2858 39.4376 30.4038 40.1096 30.4038 40.8416C30.4038 41.5776 30.2858 42.2536 30.0498 42.8696C29.8138 43.4816 29.4638 43.9876 28.9998 44.3876C28.5398 44.7836 27.9718 45.0236 27.2958 45.1076C27.0958 45.1356 26.8858 45.1516 26.6658 45.1556C26.4498 45.1596 26.3018 45.1616 26.2218 45.1616H23.5158ZM24.7998 43.9676H26.2218C26.3578 43.9676 26.5198 43.9636 26.7078 43.9556C26.8958 43.9476 27.0618 43.9316 27.2058 43.9076C27.6458 43.8236 28.0018 43.6336 28.2738 43.3376C28.5498 43.0376 28.7518 42.6696 28.8798 42.2336C29.0078 41.7976 29.0718 41.3336 29.0718 40.8416C29.0718 40.3336 29.0058 39.8636 28.8738 39.4316C28.7418 38.9956 28.5378 38.6316 28.2618 38.3396C27.9898 38.0436 27.6378 37.8556 27.2058 37.7756C27.0618 37.7476 26.8938 37.7316 26.7018 37.7276C26.5138 37.7196 26.3538 37.7156 26.2218 37.7156H24.7998V43.9676ZM31.8009 45.1616V36.5216H36.9189V37.7756H33.0549V40.2116H36.1989V41.4716H33.0549V45.1616H31.8009Z" fill="#FCFCFC"/>
</svg>
