<svg width="52" height="52" viewBox="0 0 52 52" fill="none" xmlns="http://www.w3.org/2000/svg">
<path d="M51 21.031V33.4534C51 45.8758 46 50.8447 33.5 50.8447H18.5C6 50.8447 1 45.8758 1 33.4534V18.5465C1 6.12411 6 1.15515 18.5 1.15515H31" fill="#0652DD"/>
<path d="M51 21.031V33.4534C51 45.8758 46 50.8447 33.5 50.8447H18.5C6 50.8447 1 45.8758 1 33.4534V18.5465C1 6.12411 6 1.15515 18.5 1.15515H31" stroke="#0652DD" stroke-width="1.5" stroke-linecap="round" stroke-linejoin="round"/>
<path d="M51 21.031H41C33.5 21.031 31 18.5465 31 11.0931V1.15515L51 21.031Z" fill="#0544B8" stroke="#0544B8" stroke-width="1.5" stroke-linecap="round" stroke-linejoin="round"/>
<path d="M15.9923 45.3168V36.6768H19.4843C19.5683 36.6768 19.6723 36.6808 19.7963 36.6888C19.9203 36.6928 20.0383 36.7048 20.1503 36.7248C20.6303 36.8008 21.0303 36.9648 21.3503 37.2168C21.6743 37.4688 21.9163 37.7868 22.0763 38.1708C22.2363 38.5548 22.3163 38.9788 22.3163 39.4428C22.3163 39.9108 22.2363 40.3368 22.0763 40.7208C21.9163 41.1048 21.6743 41.4228 21.3503 41.6748C21.0303 41.9268 20.6303 42.0908 20.1503 42.1668C20.0383 42.1828 19.9183 42.1948 19.7903 42.2028C19.6663 42.2108 19.5643 42.2148 19.4843 42.2148H17.2463V45.3168H15.9923ZM17.2463 41.0268H19.4363C19.5163 41.0268 19.6043 41.0228 19.7003 41.0148C19.8003 41.0068 19.8943 40.9928 19.9823 40.9728C20.2383 40.9128 20.4443 40.8028 20.6003 40.6428C20.7563 40.4788 20.8683 40.2908 20.9363 40.0788C21.0043 39.8668 21.0383 39.6548 21.0383 39.4428C21.0383 39.2308 21.0043 39.0208 20.9363 38.8128C20.8683 38.6008 20.7563 38.4148 20.6003 38.2548C20.4443 38.0908 20.2383 37.9788 19.9823 37.9188C19.8943 37.8948 19.8003 37.8788 19.7003 37.8708C19.6043 37.8628 19.5163 37.8588 19.4363 37.8588H17.2463V41.0268ZM23.5158 45.3168V36.6768H26.2218C26.3018 36.6768 26.4498 36.6788 26.6658 36.6828C26.8858 36.6868 27.0958 36.7028 27.2958 36.7308C27.9718 36.8148 28.5398 37.0568 28.9998 37.4568C29.4638 37.8568 29.8138 38.3648 30.0498 38.9808C30.2858 39.5928 30.4038 40.2648 30.4038 40.9968C30.4038 41.7328 30.2858 42.4088 30.0498 43.0248C29.8138 43.6368 29.4638 44.1428 28.9998 44.5428C28.5398 44.9388 27.9718 45.1788 27.2958 45.2628C27.0958 45.2908 26.8858 45.3068 26.6658 45.3108C26.4498 45.3148 26.3018 45.3168 26.2218 45.3168H23.5158ZM24.7998 44.1228H26.2218C26.3578 44.1228 26.5198 44.1188 26.7078 44.1108C26.8958 44.1028 27.0618 44.0868 27.2058 44.0628C27.6458 43.9788 28.0018 43.7888 28.2738 43.4928C28.5498 43.1928 28.7518 42.8248 28.8798 42.3888C29.0078 41.9528 29.0718 41.4888 29.0718 40.9968C29.0718 40.4888 29.0058 40.0188 28.8738 39.5868C28.7418 39.1508 28.5378 38.7868 28.2618 38.4948C27.9898 38.1988 27.6378 38.0108 27.2058 37.9308C27.0618 37.9028 26.8938 37.8868 26.7018 37.8828C26.5138 37.8748 26.3538 37.8708 26.2218 37.8708H24.7998V44.1228ZM31.8009 45.3168V36.6768H36.9189V37.9308H33.0549V40.3668H36.1989V41.6268H33.0549V45.3168H31.8009Z" fill="#FCFCFC"/>
</svg>
