<svg width="16" height="16" viewBox="0 0 16 16" fill="none" xmlns="http://www.w3.org/2000/svg">
<path d="M7.9987 1.33333C4.32536 1.33333 1.33203 4.32667 1.33203 8C1.33203 11.6733 4.32536 14.6667 7.9987 14.6667C11.672 14.6667 14.6654 11.6733 14.6654 8C14.6654 4.32667 11.672 1.33333 7.9987 1.33333ZM10.2387 9.53333C10.432 9.72667 10.432 10.0467 10.2387 10.24C10.1387 10.34 10.012 10.3867 9.88536 10.3867C9.7587 10.3867 9.63203 10.34 9.53203 10.24L7.9987 8.70667L6.46536 10.24C6.36536 10.34 6.2387 10.3867 6.11203 10.3867C5.98536 10.3867 5.8587 10.34 5.7587 10.24C5.56536 10.0467 5.56536 9.72667 5.7587 9.53333L7.29203 8L5.7587 6.46667C5.56536 6.27333 5.56536 5.95333 5.7587 5.76C5.95203 5.56667 6.27203 5.56667 6.46536 5.76L7.9987 7.29333L9.53203 5.76C9.72536 5.56667 10.0454 5.56667 10.2387 5.76C10.432 5.95333 10.432 6.27333 10.2387 6.46667L8.70537 8L10.2387 9.53333Z" fill="#FF2635"/>
</svg>
