<svg width="64" height="64" viewBox="0 0 64 64" fill="none" xmlns="http://www.w3.org/2000/svg">
<path d="M45.334 35.7333V43.7333C45.334 54.4 41.0673 58.6666 30.4007 58.6666H20.2673C9.60065 58.6666 5.33398 54.4 5.33398 43.7333V33.6C5.33398 22.9333 9.60065 18.6666 20.2673 18.6666H28.2673" stroke="#0652DD" stroke-width="1.5" stroke-linecap="round" stroke-linejoin="round"/>
<path d="M45.3342 35.7333H36.8009C30.4009 35.7333 28.2676 33.6 28.2676 27.2V18.6666L45.3342 35.7333Z" stroke="#0652DD" stroke-width="1.5" stroke-linecap="round" stroke-linejoin="round"/>
<path d="M30.9336 5.33337H41.6003" stroke="#0652DD" stroke-width="1.5" stroke-linecap="round" stroke-linejoin="round"/>
<path d="M18.666 13.3334C18.666 8.90671 22.2393 5.33337 26.666 5.33337H33.6527" stroke="#0652DD" stroke-width="1.5" stroke-linecap="round" stroke-linejoin="round"/>
<path d="M58.6672 21.3334V37.84C58.6672 41.9734 55.3072 45.3334 51.1738 45.3334" stroke="#0652DD" stroke-width="1.5" stroke-linecap="round" stroke-linejoin="round"/>
<path d="M58.666 21.3334H50.666C44.666 21.3334 42.666 19.3334 42.666 13.3334V5.33337L58.666 21.3334Z" stroke="#0652DD" stroke-width="1.5" stroke-linecap="round" stroke-linejoin="round"/>
</svg>
