<svg width="16" height="16" viewBox="0 0 16 16" fill="none" xmlns="http://www.w3.org/2000/svg">
<path d="M8.0026 1.33333C4.32927 1.33333 1.33594 4.32667 1.33594 8C1.33594 11.6733 4.32927 14.6667 8.0026 14.6667C11.6759 14.6667 14.6693 11.6733 14.6693 8C14.6693 4.32667 11.6759 1.33333 8.0026 1.33333ZM11.1893 6.46667L7.40927 10.2467C7.31594 10.34 7.18927 10.3933 7.05594 10.3933C6.9226 10.3933 6.79594 10.34 6.7026 10.2467L4.81594 8.36C4.6226 8.16667 4.6226 7.84667 4.81594 7.65333C5.00927 7.46 5.32927 7.46 5.5226 7.65333L7.05594 9.18667L10.4826 5.76C10.6759 5.56667 10.9959 5.56667 11.1893 5.76C11.3826 5.95333 11.3826 6.26667 11.1893 6.46667Z" fill="#0FB56D"/>
</svg>
